<?xml version="1.0" encoding="utf-8"?>
<!-- Generator: Adobe Illustrator 27.0.1, SVG Export Plug-In . SVG Version: 6.00 Build 0)  -->
<svg version="1.1" id="Capa_1" xmlns="http://www.w3.org/2000/svg" xmlns:xlink="http://www.w3.org/1999/xlink" x="0px" y="0px"
	 viewBox="0 0 121 150" style="enable-background:new 0 0 121 150;" xml:space="preserve">
<style type="text/css">
	.st0{fill-rule:evenodd;clip-rule:evenodd;fill:#469BFF;}
</style>
<g>
	<path class="st0" d="M53,0.5c-3.6-1.4-7.7,0.4-9.1,4l-43.4,111c-1.4,3.6,0.4,7.7,4,9.1l63.3,24.8c3.6,1.4,7.7-0.4,9.1-4l43.4-111
		c1.4-3.6-0.4-7.7-4-9.1L53,0.5z M109.1,35.9L50.7,13L14,106.7l58.5,22.9L109.1,35.9z M33.4,125.2c1-2,3.4-2.8,5.4-1.8
		c2,1,2.8,3.4,1.8,5.4c-1,2-3.4,2.8-5.4,1.8C33.2,129.6,32.4,127.2,33.4,125.2z M83,16c-1.1,0-2,0.9-2,2s0.9,2,2,2s2-0.9,2-2
		S84.1,16,83,16z M104,30c0-0.6,0.4-1,1-1s1,0.4,1,1s-0.4,1-1,1S104,30.6,104,30z M75.5,19.1c-0.2-0.1-0.3,0-0.4,0.2
		c-0.1,0.2,0,0.3,0.2,0.4l13,5c0.2,0.1,0.3,0,0.4-0.2c0.1-0.2,0-0.3-0.2-0.4L75.5,19.1z"/>
</g>
</svg>
