<svg width="177" height="106" viewBox="0 0 177 106" fill="none" xmlns="http://www.w3.org/2000/svg">
<path d="M25.1719 3H151.829C155.695 3 158.829 6.13401 158.829 10V85.7299H18.1719V9.99999C18.1719 6.134 21.3059 3 25.1719 3Z" stroke="#0273F8" stroke-width="6"/>
<path d="M0 91.2584C0 89.8619 1.13208 88.7299 2.52857 88.7299H174.471C175.868 88.7299 177 89.8619 177 91.2584C177 92.6549 175.868 93.787 174.471 93.787H2.52857C1.13207 93.787 0 92.6549 0 91.2584Z" fill="#D9D9D9"/>
<path d="M103.442 88.9597L76.317 88.7299C76.317 91.3044 77.8495 93.3273 78.6157 94.0169C85.6651 94.1701 100.086 94.3847 101.373 94.0169C102.66 93.6491 103.288 90.4922 103.442 88.9597Z" fill="#96B8B9"/>
<path d="M0 93.787H177C177 100.135 171.854 105.281 165.507 105.281H11.4935C5.14581 105.281 0 100.135 0 93.787Z" fill="#469BFF"/>
</svg>
