<svg width="141" height="141" viewBox="0 0 141 141" fill="none" xmlns="http://www.w3.org/2000/svg">
<path fill-rule="evenodd" clip-rule="evenodd" d="M25.2415 37.9896L38.7073 23.5569L27.8269 13.4073C37.2265 6.3861 48.4281 1.644 60.6128 1.52319e-05L60.5153 12.0774L80.2548 12.2366L80.3528 0.0862629C91.6291 1.70912 102.047 5.98809 110.952 12.2686L102.367 20.6385L116.149 34.7702L125.361 25.7878C135.144 37.932 141 53.3723 141 70.1801C141 73.7471 140.736 77.2524 140.227 80.6777L122.345 74.4927L116.03 92.746L134.785 99.2328C129.252 111.517 120.318 121.939 109.183 129.3L99.4043 110.839L81.9597 120.077L91.3386 137.784C84.6551 139.874 77.5459 141 70.1735 141C63.9983 141 58.0077 140.21 52.2973 138.725L57.5968 123.797L38.994 117.194L34.0534 131.111C15.8998 120.329 2.97651 101.665 -2.6735e-06 79.8374L15.444 79.8374L15.444 60.5229L-3.51777e-06 60.5229C1.6874 48.1485 6.57154 36.7912 13.7931 27.3102L25.2415 37.9896ZM70.1735 47.6513C82.6196 47.6513 92.7092 57.7399 92.7092 70.1849C92.7092 82.6298 82.6196 92.7184 70.1735 92.7184C57.7274 92.7184 47.6378 82.6298 47.6378 70.1849C47.6378 57.7399 57.7274 47.6513 70.1735 47.6513Z" fill="#469BFF"/>
</svg>
