<svg width="69" height="69" viewBox="0 0 69 69" fill="none" xmlns="http://www.w3.org/2000/svg">
<path fill-rule="evenodd" clip-rule="evenodd" d="M52.8167 0H30.9916V28.5643H52.8167V0ZM58.6268 29.2707C60.2941 24.1181 64.9383 21.8658 69 24.2401L61.4878 47.4558L61.39 47.3986C59.8658 50.6577 56.9987 52.8308 53.731 52.7807L27.671 52.3806L10.1588 69L0 49.6626L17.6884 32.8759L17.7369 32.9683C19.9484 31.7362 27.0751 30.6227 33.4179 31.6845C33.5032 31.6988 33.5786 31.7203 33.6448 31.7486L47.221 33.5878L52.4298 33.4149C52.4803 36.1659 50.7153 38.456 48.4874 38.5299L34.4034 38.9974C34.2032 39.3164 34.084 39.7169 34.084 40.1518C34.084 40.8087 34.356 41.3872 34.7685 41.725C34.9229 41.7173 35.0783 41.7146 35.2346 41.717L54.5036 42.0128L58.6268 29.2707ZM32.9521 37.9391L32.947 37.6652L32.4801 37.7265L32.9521 37.9391ZM49.2857 4.92857H34.5V24.6429H49.2857V4.92857Z" fill="#4699FC"/>
</svg>
