<svg width="70" height="70" viewBox="0 0 70 71" fill="none" xmlns="http://www.w3.org/2000/svg">
<path fill-rule="evenodd" clip-rule="evenodd" d="M12.4363 19.2546L18.9939 12.0057L13.6469 6.95225C18.2311 3.41969 23.7022 1.02327 29.6612 0.174459L29.6403 6.21609L39.3003 6.25289L39.3213 0.174755C44.843 0.962072 49.9506 3.07991 54.3221 6.20227L50.1399 10.4077L56.9153 17.4468L61.4035 12.9336C66.2178 18.9872 69.1177 26.6981 69.1549 35.1058C69.1629 36.8901 69.0416 38.6441 68.8001 40.3587L60.0356 37.3035L56.986 46.448L66.1781 49.6522C63.4977 55.8089 59.1489 61.0417 53.716 64.748L48.89 55.5345L40.3739 60.1935L45.0028 69.0306C41.7368 70.0906 38.2603 70.6694 34.6526 70.6854C31.6308 70.6988 28.6975 70.3165 25.8997 69.5862L28.46 62.1073L19.3419 58.8447L16.9551 65.8172C8.04756 60.4628 1.68205 51.155 0.177048 40.2427L7.73467 40.2091L7.69181 30.5475L0.134197 30.5811C0.932485 24.3874 3.29737 18.6956 6.81025 13.9373L12.4363 19.2546ZM34.4455 23.99C40.5361 23.963 45.4959 28.9877 45.5235 35.213C45.5511 41.4383 40.6361 46.5068 34.5455 46.5338C28.4549 46.5608 23.4951 41.5361 23.4675 35.3108C23.4399 29.0855 28.3549 24.0171 34.4455 23.99Z" fill="#469BFF"/>
</svg>
