<?xml version="1.0" encoding="utf-8"?>
<!-- Generator: Adobe Illustrator 27.0.1, SVG Export Plug-In . SVG Version: 6.00 Build 0)  -->
<svg version="1.1" id="Capa_1" xmlns="http://www.w3.org/2000/svg" xmlns:xlink="http://www.w3.org/1999/xlink" x="0px" y="0px"
	 viewBox="0 0 70 70" style="enable-background:new 0 0 70 70;" xml:space="preserve">
<style type="text/css">
	.st0{fill-rule:evenodd;clip-rule:evenodd;fill:#469BFF;}
</style>
<g>
	<path class="st0" d="M12.8,19l6.5-7.1l-5.3-5c4.5-3.5,9.9-5.8,15.8-6.7l0,6l9.5,0l0-6C44.7,0.9,49.7,3,54,6.1l-4.1,4.1l6.7,6.9
		l4.4-4.4c4.7,6,7.6,13.6,7.6,21.9c0,1.8-0.1,3.5-0.3,5.2l-8.6-3l-3,9l9.1,3.2c-2.6,6.1-6.9,11.2-12.3,14.9l-4.8-9.1l-8.4,4.6
		l4.6,8.7c-3.2,1-6.6,1.6-10.2,1.6c-3,0-5.9-0.4-8.6-1.1l2.5-7.4l-9-3.2l-2.4,6.9C8.4,59.6,2.2,50.4,0.7,39.7l7.5,0l0-9.5l-7.5,0
		C1.4,24,3.7,18.4,7.2,13.7L12.8,19z M34.5,23.7c6,0,10.9,4.9,10.9,11.1c0,6.1-4.8,11.1-10.8,11.2S23.7,41,23.6,34.8
		C23.6,28.7,28.4,23.7,34.5,23.7z"/>
</g>
</svg>
