<svg width="629" height="261" viewBox="0 0 629 261" fill="none" xmlns="http://www.w3.org/2000/svg">
<path d="M3.11851 69.6941L27.4665 59.0129C30.0833 57.8591 33.0807 58.9177 34.1512 61.368L75.9483 152.789L38.8495 166.741L0.121101 74.5114C-0.390361 73.3933 0.739616 70.7528 3.10662 69.706L3.11851 69.6941Z" fill="#469BFF"/>
<path d="M37.4095 169.714L78.2789 151.789L37.4095 169.714Z" fill="#469BFF"/>
<path d="M88.7608 215.258L75.3319 219.064L92.5076 256.472L100.786 260.421L103.022 251.583L88.7608 215.258Z" fill="#469BFF"/>
<path d="M66.2442 221.443C67.3622 224.571 69.4676 224.607 69.4676 224.607L93.3992 214.663C97.5504 213.7 96.3491 208.514 96.3491 208.514L77.3893 160.817L76.973 159.865L43.9896 174.341L66.2442 221.455V221.443ZM64.0913 174.043C66.0658 173.175 68.8134 175.09 70.2288 178.314C71.6443 181.537 71.1923 184.855 69.2178 185.724C67.2433 186.592 64.4957 184.677 63.0802 181.454C61.6648 178.23 62.1406 174.9 64.1151 174.032H64.1032L64.0913 174.043ZM72.2033 195.144C74.1778 194.276 76.9254 196.191 78.3408 199.414C79.7563 202.638 79.3162 205.944 77.3417 206.813C75.3672 207.681 72.6196 205.766 71.2042 202.543C69.7887 199.319 70.2407 196.001 72.2152 195.132H72.2033V195.144Z" fill="#469BFF"/>
<path d="M140.151 21.6161C137.665 18.0002 135.31 15.0028 131.777 12.1719C124.26 6.1295 114.911 1.50255 103.73 1.03867C97.1764 0.753201 90.3966 2.06158 83.9735 4.52374C80.0841 6.01055 76.3968 7.98503 72.8641 10.1617C68.9746 12.5644 65.4182 15.3715 61.5644 17.8218C60.7199 18.357 59.8278 18.8566 58.9833 19.3918C58.3885 19.7724 59.7207 18.9874 59.1141 19.3324L58.4718 19.6892C58.0079 19.939 57.5559 20.1888 57.0683 20.4385C55.6647 21.176 54.2255 21.8421 52.7506 22.4249C52.4651 22.5558 52.1558 22.6509 51.8704 22.758C51.7039 22.8174 51.5492 22.865 51.3827 22.9245C50.669 23.1981 51.8347 22.7699 51.8942 22.7699C51.4184 22.758 50.6334 23.1386 50.1338 23.2456C49.6342 23.3527 49.0752 23.436 48.528 23.5311C47.636 23.6738 49.0633 23.5311 48.8968 23.4954C48.647 23.4954 48.3853 23.4954 48.1236 23.5192C47.8144 23.5192 46.5298 23.3884 47.4219 23.5073C48.3139 23.6263 47.0888 23.4003 46.8033 23.317C46.613 23.2694 45.8994 22.984 46.732 23.317C47.517 23.6263 46.9342 23.4003 46.7558 23.3051C46.5179 23.1505 45.5544 22.4844 46.2324 23.0196C46.9104 23.5549 46.1016 22.865 45.935 22.6747C45.8399 22.5677 45.7566 22.4606 45.6615 22.3535C45.1857 21.8064 45.6972 22.2703 45.8399 22.6747C45.6258 22.0562 45.2095 21.509 44.9835 20.8786C44.924 20.7359 44.9002 20.5932 44.8526 20.4504C44.6266 19.7843 44.9359 20.6288 44.9478 20.8786C44.9002 20.5099 44.7813 20.1412 44.7218 19.7725C44.6147 19.0826 44.5434 18.3808 44.5196 17.6671C44.4839 16.9297 44.4958 16.1922 44.5196 15.4429C44.5196 15.2882 44.5434 15.1217 44.5434 14.9671C44.5434 14.8125 44.4363 16.1565 44.5196 15.312C44.5553 14.9552 44.5791 14.6103 44.6267 14.2534C44.8526 12.3146 45.2927 10.3996 45.7447 8.4608C45.7685 8.36565 45.8042 8.2586 45.828 8.16344C46.506 5.8916 44.4363 4.32154 42.1764 4.08365C36.9785 3.59598 31.5308 4.16691 26.2259 5.76077C21.0161 7.34274 16.3416 9.81677 12.4997 13.516C8.08685 17.7623 5.69606 23.2694 4.70882 28.4792C2.8176 38.4824 5.00618 48.2597 7.80138 57.3114C8.3961 59.2264 11.5125 59.9282 13.6772 58.8815C16.1751 57.6801 17.1266 55.5391 16.4962 53.4933C15.1403 49.3064 14.1887 44.9887 13.6297 40.5759C13.4037 38.756 13.2728 36.9243 13.2372 35.0687C13.2253 34.248 13.2372 33.4392 13.2728 32.6185C13.2728 32.4401 13.2966 32.2498 13.2966 32.0594C13.3323 31.1436 13.2372 32.7136 13.2966 32.1308C13.3442 31.6907 13.3799 31.2625 13.4275 30.8105C13.594 29.407 13.8676 27.9915 14.2363 26.5761C14.4147 25.9219 14.6288 25.2677 14.831 24.6135C15.0332 23.9593 14.4385 25.5651 14.8429 24.5897C14.9737 24.2567 15.1165 23.9355 15.2592 23.6025C15.7707 22.5082 16.3535 21.4496 17.0196 20.4029C17.3764 19.82 16.3059 21.3544 16.9363 20.5337C17.091 20.3315 17.2337 20.1293 17.4002 19.9271C17.757 19.4632 18.1496 19.0112 18.554 18.5711C18.9108 18.1905 19.2676 17.8455 19.6602 17.4649C20.0527 17.0843 18.661 18.3094 19.4461 17.6671C19.6721 17.4768 19.8981 17.2746 20.1359 17.0843C20.9686 16.442 21.825 15.8354 22.7289 15.2882C23.621 14.7173 21.6227 15.8711 22.4554 15.4429L23.062 15.1217C23.5378 14.8719 24.0254 14.634 24.5131 14.4199C25.429 14.0155 26.3567 13.6706 27.2964 13.3375C28.2361 13.0045 26.3092 13.623 26.8563 13.4684C27.0585 13.4089 27.2607 13.3494 27.4629 13.29C27.9506 13.1472 28.4264 13.0283 28.9141 12.9093C29.7705 12.6952 30.6388 12.5287 31.507 12.3741C32.3753 12.2195 33.1723 12.1243 34.0168 12.0291L34.5401 11.9697C35.4679 11.8626 33.3031 12.0529 34.0525 12.0173C34.4331 11.9935 34.8256 11.9578 35.2062 11.9459C36.9666 11.8269 38.7151 11.8507 40.416 12.0054L36.7644 7.92556C35.456 12.3741 34.8256 17.227 35.4917 21.4971C36.027 24.9228 37.4781 28.4554 40.9513 30.1801C45.5068 32.4401 51.2875 31.2625 56.4379 29.1215C60.1251 27.5871 63.6221 25.5413 66.9645 23.4122C70.8658 20.9262 74.458 18.0715 78.4307 15.657C78.8708 15.3953 79.3109 15.1217 79.7629 14.8719C78.8232 15.4191 79.9889 14.753 80.3101 14.5865C81.1427 14.1345 82.0229 13.6825 82.903 13.2662C84.5445 12.4692 86.2335 11.7675 87.9463 11.149C88.3507 11.0062 88.767 10.8635 89.1714 10.7208C90.004 10.4353 88.1604 11.0062 89.3261 10.6732C90.1706 10.4234 91.0151 10.1974 91.8715 9.9952C93.3583 9.63837 94.857 9.36479 96.3557 9.17448C96.7244 9.1269 97.105 9.10311 97.4738 9.04364C98.0685 8.94848 96.5222 9.10312 97.1169 9.06743C97.2597 9.06743 97.3905 9.04365 97.5332 9.03175C98.3064 8.98417 99.0795 8.94849 99.8408 8.93659C101.256 8.9247 102.648 8.98416 104.028 9.115L104.908 9.21016C106.05 9.341 104.408 9.11502 105.039 9.22207C105.669 9.32912 106.347 9.43616 106.989 9.567C108.262 9.82868 109.499 10.1498 110.712 10.5186C111.866 10.8754 113.008 11.5177 114.197 11.7556C114.15 11.7556 113.234 11.3512 113.829 11.6128C113.971 11.6723 114.102 11.7318 114.257 11.7913C114.495 11.8983 114.733 12.0054 114.971 12.1124C115.541 12.3741 116.112 12.6477 116.66 12.9331C118.634 13.9442 120.525 15.0741 122.298 16.323C123.118 16.894 115.851 10.7921 116.648 11.3869C117.064 11.708 115.851 10.7327 116.564 11.3274C116.755 11.482 116.933 11.6366 117.112 11.7913C117.468 12.0886 117.825 12.3979 118.182 12.7071C119.431 13.8014 120.609 14.9433 121.738 16.1328C123.035 17.5006 124.153 18.9517 125.343 20.4029C125.402 20.4742 125.45 20.5575 125.497 20.6289C126.675 22.3298 130.624 24.0545 132.503 22.6866C134.751 21.0571 138.058 24.3994 136.88 22.6866L140.163 21.5923L140.151 21.6161Z" fill="#469BFF"/>
<path d="M22.0313 60.5113L8.1505 65.3047L4.98657 58.0848C4.65353 57.3354 5.1412 56.3958 6.08086 55.9914L14.9422 52.1019C16.5242 51.412 18.2489 51.8759 18.8079 53.1367" fill="#469BFF"/>
<path d="M37.3408 168.953L78.2102 151.028C79.0072 150.683 79.9111 151.005 80.2323 151.742L82.9205 157.868C83.2416 158.605 82.861 159.497 82.0759 159.842L41.2065 177.779C40.4096 178.124 39.5056 177.803 39.1845 177.065L36.4963 170.94C36.1752 170.202 36.5439 169.31 37.3408 168.965V168.953Z" fill="#469BFF"/>
<path d="M237.578 143V164.707H204.761V259.138H181.234V164.707H149V143H237.566H237.578Z" fill="#469BFF"/>
<path d="M322.659 143V164.624H272.928V190.542H322.659V211.595H272.928V237.513H322.659V259.138H250.578V143.012H322.659V143Z" fill="#469BFF"/>
<path d="M395.69 239.888C398.925 239.888 402.042 239.519 405.027 238.793C408.013 238.068 410.844 237.021 413.52 235.677C416.196 234.333 418.682 232.715 420.966 230.86C423.25 228.992 425.295 226.911 427.08 224.58L442.566 237.533C439.83 240.875 436.75 243.932 433.312 246.679C429.875 249.427 426.164 251.782 422.179 253.721C418.182 255.66 413.972 257.158 409.535 258.217C405.099 259.264 400.484 259.799 395.678 259.799C390.147 259.799 384.842 259.109 379.728 257.729C374.625 256.35 369.832 254.399 365.371 251.854C360.911 249.32 356.855 246.299 353.227 242.778C349.599 239.269 346.471 235.356 343.854 231.038C341.225 226.721 339.203 222.094 337.788 217.145C336.36 212.209 335.659 207.059 335.659 201.718C335.659 196.378 336.372 191.227 337.788 186.291C339.215 181.355 341.237 176.728 343.854 172.399C346.483 168.081 349.599 164.168 353.227 160.659C356.855 157.15 360.899 154.129 365.371 151.583C369.832 149.05 374.625 147.087 379.728 145.707C384.83 144.328 390.147 143.638 395.678 143.638C400.484 143.638 405.099 144.161 409.535 145.22C413.972 146.266 418.182 147.777 422.179 149.716C426.164 151.655 429.875 153.998 433.312 156.722C436.75 159.445 439.83 162.49 442.566 165.833L427.08 178.869C425.295 176.55 423.261 174.444 420.966 172.553C418.67 170.662 416.196 169.056 413.52 167.736C410.844 166.416 408.013 165.393 405.027 164.655C402.042 163.93 398.925 163.561 395.69 163.561C390.278 163.561 385.175 164.56 380.37 166.558C375.565 168.557 371.39 171.28 367.809 174.742C364.241 178.203 361.422 182.235 359.352 186.85C357.283 191.465 356.26 196.425 356.26 201.706C356.26 206.988 357.295 211.888 359.352 216.527C361.422 221.166 364.241 225.222 367.809 228.671C371.378 232.133 375.565 234.856 380.37 236.855C385.175 238.853 390.278 239.852 395.69 239.852V239.888Z" fill="#469BFF"/>
<path d="M546.243 143V259.126H523.394V211.583H479.444V259.126H456V143H479.444V190.542H523.394V143H546.243Z" fill="#469BFF"/>
<path d="M119.802 102.25C123.037 102.25 126.154 101.881 129.139 101.156C132.125 100.43 134.956 99.3835 137.632 98.0394C140.308 96.6953 142.794 95.0777 145.078 93.2221C147.362 91.3547 149.407 89.2732 151.192 86.9419L166.678 99.8949C163.942 103.237 160.862 106.294 157.424 109.042C153.987 111.789 150.276 114.145 146.291 116.083C142.295 118.022 138.084 119.521 133.647 120.579C129.211 121.626 124.596 122.161 119.79 122.161C114.259 122.161 108.954 121.471 103.84 120.092C98.737 118.712 93.9436 116.761 89.4831 114.216C85.0227 111.682 80.9667 108.661 77.3389 105.14C73.7111 101.632 70.5828 97.7182 67.966 93.4005C65.3374 89.0829 63.3153 84.4559 61.8999 79.5078C60.4725 74.5716 59.7708 69.4213 59.7708 64.0807C59.7708 58.7401 60.4844 53.5898 61.8999 48.6536C63.3272 43.7174 65.3493 39.0904 67.966 34.7608C70.5947 30.4431 73.7111 26.5299 77.3389 23.021C80.9667 19.5121 85.0108 16.4909 89.4831 13.9455C93.9436 11.412 98.737 9.4494 103.84 8.06964C108.942 6.68989 114.259 6 119.79 6C124.596 6 129.211 6.52336 133.647 7.58197C138.084 8.64057 142.295 10.1274 146.291 12.0781C150.276 14.0169 153.987 16.3601 157.424 19.0839C160.862 21.8077 163.942 24.8527 166.678 28.1951L151.192 41.2314C149.407 38.912 147.374 36.8067 145.078 34.9155C142.782 33.0242 140.308 31.4185 137.632 30.0982C134.956 28.7779 132.125 27.755 129.139 27.0175C126.154 26.292 123.037 25.9232 119.802 25.9232C114.39 25.9232 109.287 26.9224 104.482 28.9206C99.6767 30.9189 95.5017 33.6427 91.9215 37.104C88.3532 40.5653 85.5342 44.5975 83.4645 49.2126C81.3949 53.8276 80.372 58.7876 80.372 64.0688C80.372 69.3499 81.4068 74.2504 83.4645 78.8893C85.5342 83.5281 88.3532 87.5842 91.9215 91.0336C95.4898 94.4949 99.6767 97.2187 104.482 99.2169C109.287 101.215 114.39 102.214 119.802 102.214V102.25Z" fill="#469BFF"/>
<path d="M332.671 117.138C316.601 117.138 304.374 109.073 296 92.9204L314.662 82.1441C320.134 92.076 326.331 97.0478 333.242 97.0478C336.869 97.0478 340.045 96.0249 342.781 93.9672C345.231 91.7548 346.468 89.3521 346.468 86.7591C346.468 84.1661 345.6 81.6564 343.875 79.0634C342.757 77.8264 341.14 76.2682 339.022 74.4127C336.905 72.5452 334.253 70.321 331.065 67.728C324.987 62.8156 319.944 58.486 315.959 54.7273C311.962 50.9806 309.048 47.781 307.216 45.1285C303.303 39.7284 301.353 34.4354 301.353 29.2613C301.353 21.4823 304.362 14.8214 310.392 9.25476C316.637 3.74762 324.071 1 332.659 1C338.57 1 344.077 2.37976 349.156 5.12738C351.785 6.36441 354.485 8.14858 357.28 10.468C360.075 12.7874 363.025 15.6302 366.154 18.9725L349.656 32.8177C344.125 25.3123 338.463 21.5655 332.659 21.5655C329.423 21.5655 327.128 22.2435 325.796 23.5876C324.011 24.9317 323.119 26.6683 323.119 28.7736C323.119 30.3912 323.655 32.0684 324.713 33.7931C325.772 34.8755 327.627 36.5645 330.28 38.8601C332.932 41.1557 336.406 44.1175 340.699 47.7334C345.719 51.7775 349.549 55.0009 352.166 57.3679C353.89 58.8785 355.175 59.9609 356.019 60.6032C363.834 67.8945 367.736 76.2563 367.736 85.7124C367.736 95.1685 364.524 102.555 358.113 108.383C351.749 114.212 343.269 117.126 332.659 117.126L332.671 117.138Z" fill="#469BFF"/>
<path d="M469.314 1.5V23.2074H436.497V117.638H412.97V23.2074H380.736V1.5H469.302H469.314Z" fill="#469BFF"/>
<path d="M510.121 0L487.251 0.549599V117H539.251V95H510.121V0Z" fill="#469BFF"/>
<path d="M628.08 1V22.6241H578.35V48.5422H628.08V69.5954H578.35V95.5134H628.08V117.138H556V1.01189H628.08V1Z" fill="#469BFF"/>
<path d="M196.749 21.6942L193.131 30.3053L179.991 24.7842L174.5 31.7859L173.9 39.2811L187.04 44.8022L183.233 53.8651L170.091 48.3435L167 62.7859L177.142 68.3619L177.137 68.3731L188 72.2859L213.5 11.7859L202.842 7.19448L202.84 7.19736L193.131 3.61753L183.87 16.2829L196.749 21.6942Z" fill="#469BFF"/>
<path d="M242.946 2L243.529 3.61765L231.812 32.8542L215.577 72.784H247.977L240.198 53.9193L251.914 24.6827L289.334 118.138H265.224L256.351 94.3248H207.215L197.164 118.138H173.72L220.013 2.01189H242.946V2Z" fill="#469BFF"/>
</svg>
