<svg width="69" height="52" viewBox="0 0 69 52" fill="none" xmlns="http://www.w3.org/2000/svg">
<path d="M58.3436 25.1203C58.3436 31.233 54.169 36.1884 49.0193 36.1884C43.8696 36.1884 39.695 31.233 39.695 25.1203C39.695 19.0075 43.8696 15.4074 49.0193 15.4074C54.169 15.4074 58.3436 19.0075 58.3436 25.1203Z" fill="#1D7CEC"/>
<path d="M31.7027 52C31.7027 45.014 36.4737 39.3507 42.3591 39.3507H58.3436C64.229 39.3507 69 45.014 69 52H31.7027Z" fill="#1D7CEC"/>
<path d="M26.6409 25.1203C26.6409 31.233 22.4663 36.1884 17.3166 36.1884C12.1669 36.1884 7.99228 31.233 7.99228 25.1203C7.99228 19.0075 12.1669 15.4074 17.3166 15.4074C22.4663 15.4074 26.6409 19.0075 26.6409 25.1203Z" fill="#1D7CEC"/>
<path d="M0 52C0 45.014 4.77102 39.3507 10.6564 39.3507H26.6409C32.5263 39.3507 37.2973 45.014 37.2973 52H0Z" fill="#1D7CEC"/>
<path d="M46.6216 13.8025C46.6216 22.489 40.7771 29.5309 33.5676 29.5309C26.358 29.5309 20.5135 22.489 20.5135 13.8025C20.5135 5.11592 26.358 0 33.5676 0C40.7771 0 46.6216 5.11592 46.6216 13.8025Z" fill="#469BFF"/>
<path d="M9.32432 52C9.32432 42.0725 16.0038 34.0247 24.2432 34.0247H46.6216C54.8611 34.0247 61.5405 42.0725 61.5405 52H9.32432Z" fill="#469BFF"/>
</svg>
